# xmcd
#
# Track frame offsets: 
#        150
#        18419
#        45945
#        64516
#        84880
#        105008
#        124983
#        146386
#        166763
#        183094
#        210118
#        232607
#
# Disc length: 3698 seconds
#
# Revision: 0
# Processed by: cddbd v1.5.2PL0 Copyright (c) Steve Scherf et al.
# Submitted via: ExactAudioCopy v0.99pb5
#
DISCID=760e700c
DTITLE=Mitch Laddie - This Time Around
DYEAR=2010
DGENRE=Blues
TTITLE0=Awakening (Intro)
TTITLE1=Here's A Drink
TTITLE2=Get You Back
TTITLE3=I Need Your Love
TTITLE4=Float On By
TTITLE5=Papa's Got A Brand New Bag
TTITLE6=This Time Around
TTITLE7=Miss Supernatural
TTITLE8=Two Years
TTITLE9=Mr. Johnson
TTITLE10=All I Have
TTITLE11=Rock Me Baby
EXTD=
EXTT0=
EXTT1=
EXTT2=
EXTT3=
EXTT4=
EXTT5=
EXTT6=
EXTT7=
EXTT8=
EXTT9=
EXTT10=
EXTT11=
PLAYORDER=
